<svg width="433" height="875" viewBox="0 0 433 875" fill="none" xmlns="http://www.w3.org/2000/svg">
<g filter="url(#filter0_i_455_1157)">
<path fill-rule="evenodd" clip-rule="evenodd" d="M14.0599 36.3615C7.75391 48.7376 7.75391 64.9388 7.75391 97.3413L7.75391 777.658C7.75391 810.061 7.75391 826.262 14.0599 838.638C19.6067 849.525 28.4576 858.375 39.3439 863.922C51.72 870.228 67.9213 870.228 100.324 870.228L332.106 870.228C364.509 870.228 380.71 870.228 393.086 863.922C403.973 858.375 412.823 849.525 418.37 838.638C424.676 826.262 424.676 810.061 424.676 777.658L424.676 97.3414C424.676 64.9389 424.676 48.7376 418.37 36.3615C412.823 25.4752 403.973 16.6243 393.086 11.0774C380.71 4.77148 364.509 4.77148 332.106 4.77148L100.324 4.77148C67.9213 4.77148 51.72 4.77148 39.3439 11.0774C28.4576 16.6243 19.6067 25.4752 14.0599 36.3615ZM23.8582 86.3666C23.8582 63.6514 23.8582 52.2938 28.2789 43.6178C32.1674 35.9862 38.3721 29.7814 46.0038 25.8929C54.6798 21.4722 66.0374 21.4722 88.7526 21.4722L108.687 21.4722C109.675 21.4722 110.168 21.4722 110.564 21.6161C111.226 21.8573 111.749 22.3794 111.99 23.0421C112.134 23.4374 112.134 23.9311 112.134 24.9184C112.134 32.8174 112.134 36.7668 113.285 39.9293C115.214 45.2309 119.391 49.4072 124.692 51.3368C127.855 52.4879 131.804 52.4879 139.703 52.4879L292.727 52.4879C300.626 52.4879 304.575 52.4879 307.738 51.3368C313.04 49.4072 317.216 45.2309 319.145 39.9293C320.297 36.7668 320.297 32.8174 320.297 24.9184C320.297 23.9311 320.297 23.4374 320.44 23.0421C320.682 22.3794 321.204 21.8573 321.866 21.6161C322.262 21.4722 322.755 21.4722 323.743 21.4722L343.678 21.4722C366.393 21.4722 377.75 21.4722 386.426 25.8929C394.058 29.7814 400.263 35.9862 404.151 43.6178C408.572 52.2938 408.572 63.6514 408.572 86.3666L408.572 788.633C408.572 811.348 408.572 822.706 404.151 831.382C400.263 839.014 394.058 845.218 386.426 849.107C377.75 853.527 366.393 853.527 343.678 853.527L88.7525 853.527C66.0374 853.527 54.6798 853.527 46.0038 849.107C38.3721 845.218 32.1674 839.014 28.2789 831.382C23.8582 822.706 23.8582 811.348 23.8582 788.633L23.8582 86.3666Z" fill="#181818"/>
</g>
<g style="mix-blend-mode:overlay">
<rect width="5.3681" height="6.56101" transform="matrix(1 8.5481e-07 8.54812e-07 1 335.207 0)" fill="url(#paint0_linear_455_1157)"/>
</g>
<g style="mix-blend-mode:overlay">
<rect width="5.3681" height="6.56101" transform="matrix(-1 1.05754e-06 1.23238e-06 -1 97.2188 875)" fill="url(#paint1_linear_455_1157)"/>
</g>
<g style="mix-blend-mode:overlay">
<path fill-rule="evenodd" clip-rule="evenodd" d="M427.291 90.0645L429.445 92.7546L428.082 95.4325L424.611 94.8372L427.291 90.0645Z" fill="url(#paint2_linear_455_1157)"/>
</g>
<g style="mix-blend-mode:overlay">
<path d="M8.40885 779.632L5.72841 784.936L10.1352 784.936L10.1352 779.632L8.40885 779.632Z" fill="url(#paint3_linear_455_1157)"/>
</g>
<g style="mix-blend-mode:overlay">
<path d="M4.34341 95.4326L7.8151 94.8372L9.54148 94.8372L9.54148 95.4326L4.34341 95.4326Z" fill="url(#paint4_linear_455_1157)"/>
</g>
<g style="mix-blend-mode:overlay">
<rect width="5.96455" height="6.56101" transform="matrix(1.47344e-06 -1 -1 1.38603e-06 428.852 784.936)" fill="url(#paint5_linear_455_1157)"/>
</g>
<defs>
<filter id="filter0_i_455_1157" x="7.75391" y="4.77148" width="416.922" height="866.9" filterUnits="userSpaceOnUse" color-interpolation-filters="sRGB">
<feFlood flood-opacity="0" result="BackgroundImageFix"/>
<feBlend mode="normal" in="SourceGraphic" in2="BackgroundImageFix" result="shape"/>
<feColorMatrix in="SourceAlpha" type="matrix" values="0 0 0 0 0 0 0 0 0 0 0 0 0 0 0 0 0 0 127 0" result="hardAlpha"/>
<feOffset dy="1.44331"/>
<feGaussianBlur stdDeviation="1.44331"/>
<feComposite in2="hardAlpha" operator="arithmetic" k2="-1" k3="1"/>
<feColorMatrix type="matrix" values="0 0 0 0 0 0 0 0 0 0 0 0 0 0 0 0 0 0 0.15 0"/>
<feBlend mode="normal" in2="shape" result="effect1_innerShadow_455_1157"/>
</filter>
<linearGradient id="paint0_linear_455_1157" x1="2.68405" y1="0" x2="2.68405" y2="6.56101" gradientUnits="userSpaceOnUse">
<stop offset="0.71828" stop-color="white"/>
<stop offset="0.792202" stop-color="#272727" stop-opacity="0.3"/>
<stop offset="1" stop-opacity="0"/>
</linearGradient>
<linearGradient id="paint1_linear_455_1157" x1="2.68405" y1="0" x2="2.68405" y2="6.56101" gradientUnits="userSpaceOnUse">
<stop offset="0.71828"/>
<stop offset="0.792202" stop-color="#272727" stop-opacity="0.3"/>
<stop offset="1" stop-opacity="0"/>
</linearGradient>
<linearGradient id="paint2_linear_455_1157" x1="429.445" y1="92.7485" x2="422.884" y2="92.7485" gradientUnits="userSpaceOnUse">
<stop offset="0.71828" stop-color="white"/>
<stop offset="0.792202" stop-color="#272727" stop-opacity="0.3"/>
<stop offset="1" stop-opacity="0"/>
</linearGradient>
<linearGradient id="paint3_linear_455_1157" x1="3.57422" y1="781.953" x2="10.1352" y2="781.953" gradientUnits="userSpaceOnUse">
<stop offset="0.71828"/>
<stop offset="0.792202" stop-color="#272727" stop-opacity="0.3"/>
<stop offset="1" stop-opacity="0"/>
</linearGradient>
<linearGradient id="paint4_linear_455_1157" x1="2.98047" y1="92.7485" x2="9.54148" y2="92.7485" gradientUnits="userSpaceOnUse">
<stop offset="0.71828" stop-color="white"/>
<stop offset="0.792202" stop-color="#272727" stop-opacity="0.3"/>
<stop offset="1" stop-opacity="0"/>
</linearGradient>
<linearGradient id="paint5_linear_455_1157" x1="2.98228" y1="0" x2="2.98228" y2="6.56101" gradientUnits="userSpaceOnUse">
<stop offset="0.71828"/>
<stop offset="0.792202" stop-color="#272727" stop-opacity="0.3"/>
<stop offset="1" stop-opacity="0"/>
</linearGradient>
</defs>
</svg>
